<svg xmlns="http://www.w3.org/2000/svg" fill="none" viewBox="0 0 48 48"><circle fill="#fff" r="24" cy="24" cx="24"/><path fill="#FF0420" d="M24 46c12.15 0 22-9.85 22-22S36.15 2 24 2 2 11.85 2 24s9.85 22 22 22Z"/><path fill="#fff" d="M17.588 29.847c-1.31 0-2.384-.308-3.22-.925-.826-.627-1.239-1.518-1.239-2.674 0-.243.028-.54.083-.892.143-.793.347-1.745.611-2.857.748-3.027 2.68-4.54 5.796-4.54.847 0 1.607.143 2.278.429.672.275 1.2.693 1.586 1.255.385.55.578 1.21.578 1.981 0 .231-.028.523-.083.875a37.38 37.38 0 0 1-.595 2.857c-.385 1.508-1.05 2.636-1.997 3.385-.947.737-2.213 1.106-3.798 1.106Zm.23-2.378c.617 0 1.14-.181 1.57-.544.44-.364.754-.92.94-1.668.254-1.035.447-1.938.579-2.708a3.79 3.79 0 0 0 .066-.71c0-1.002-.523-1.503-1.569-1.503-.616 0-1.145.182-1.585.545-.43.363-.738.92-.925 1.668-.198.737-.396 1.64-.594 2.708-.044.22-.066.451-.066.693 0 1.013.528 1.52 1.585 1.52ZM24.819 29.682a.35.35 0 0 1-.281-.115.394.394 0 0 1-.05-.298l2.28-10.733a.472.472 0 0 1 .18-.297.504.504 0 0 1 .314-.115h4.393c1.222 0 2.201.253 2.939.76.748.506 1.123 1.238 1.123 2.195 0 .276-.033.562-.1.859-.275 1.266-.83 2.202-1.667 2.807-.826.605-1.96.908-3.402.908H28.32l-.76 3.616a.473.473 0 0 1-.18.298.504.504 0 0 1-.315.115H24.82Zm5.845-6.307c.462 0 .864-.127 1.205-.38.353-.254.584-.617.694-1.09.033-.187.05-.352.05-.495 0-.32-.094-.562-.281-.727-.188-.176-.507-.264-.958-.264h-1.982l-.627 2.956h1.899Z"/></svg>