<svg width="48" height="48" viewBox="0 0 48 48" fill="none" xmlns="http://www.w3.org/2000/svg">
<circle cx="24" cy="24" r="24" fill="white"/>
<path d="M24 45C35.598 45 45 35.598 45 24C45 12.402 35.598 3 24 3C12.402 3 3 12.402 3 24C3 35.598 12.402 45 24 45Z" fill="#A7B8DB"/>
<path d="M37.9998 24.4902V30.8256C37.9976 31.2207 37.8932 31.6084 37.6968 31.9509C37.5005 32.2933 37.219 32.5788 36.8798 32.7794L31.4111 35.9405C31.0724 36.1431 30.6854 36.2501 30.2911 36.2501C29.8968 36.2501 29.5098 36.1431 29.1711 35.9405L23.7023 32.7794C23.3631 32.5788 23.0816 32.2933 22.8853 31.9509C22.689 31.6084 22.5846 31.2207 22.5823 30.8256V29.0475L25.3823 27.4165V30.5073L30.2823 33.3611L35.1823 30.5073V24.8129L30.2823 21.9591L18.8023 28.6326C18.4605 28.8259 18.0747 28.9275 17.6823 28.9275C17.2899 28.9275 16.9042 28.8259 16.5623 28.6326L11.0936 25.4583C10.7596 25.2547 10.4835 24.9681 10.2919 24.6263C10.1004 24.2845 9.99978 23.8989 9.99983 23.5067V17.1713C10.0021 16.7762 10.1065 16.3885 10.3028 16.0461C10.4992 15.7036 10.7807 15.4181 11.1198 15.2176L16.5886 12.0564C16.928 11.8558 17.3147 11.75 17.7086 11.75C18.1025 11.75 18.4892 11.8558 18.8286 12.0564L24.2973 15.2176C24.6365 15.4181 24.918 15.7036 25.1143 16.0461C25.3107 16.3885 25.415 16.7762 25.4173 17.1713V18.9494L22.5998 20.5695V17.4962L17.6998 14.6424L12.7998 17.4962V23.184L17.6998 26.0378L29.1798 19.3643C29.5217 19.171 29.9075 19.0695 30.2998 19.0695C30.6922 19.0695 31.078 19.171 31.4198 19.3643L36.8886 22.5386C37.2258 22.7401 37.5054 23.0257 37.7001 23.3677C37.8948 23.7096 37.9981 24.0964 37.9998 24.4902Z" fill="white"/>
</svg>
