<svg width="48" height="48" viewBox="0 0 48 48" fill="none" xmlns="http://www.w3.org/2000/svg">
<circle cx="24" cy="24" r="24" fill="white"/>
<path d="M45.3414 29.3221C42.4027 41.1077 30.4644 48.2803 18.676 45.3414C6.89239 42.403 -0.281051 30.4653 2.65901 18.6804C5.59631 6.8933 17.5347 -0.280006 29.3197 2.65834C41.1075 5.5967 48.2803 17.5357 45.3414 29.3221Z" fill="#F7931A"/>
<path fill-rule="evenodd" clip-rule="evenodd" d="M28.8273 15.3242L29.8172 11.3357L27.4004 10.7307L26.4367 14.6141C25.8013 14.455 25.1487 14.305 24.5002 14.1563L25.4709 10.2473L23.0554 9.64227L22.0648 13.6294C20.4327 13.256 18.8136 12.8299 17.1913 12.4165L16.5483 15.0096C16.5483 15.0096 18.3415 15.4224 18.3036 15.448C19.2825 15.6935 19.4593 16.3442 19.4298 16.86L16.7177 27.7862C16.5979 28.0849 16.2943 28.533 15.61 28.3628C15.6342 28.3981 13.8533 27.9224 13.8533 27.9224L12.6535 30.7015C14.2775 31.1081 15.9003 31.5184 17.5216 31.9358L16.5215 35.9699L18.9355 36.5749L19.9261 32.5837C20.5855 32.7634 21.2258 32.9294 21.8522 33.0857L20.8651 37.0583L23.2819 37.6634L24.282 33.6368C28.4033 34.4203 31.5024 34.1042 32.8068 30.3599C33.8579 27.345 32.7545 25.6059 30.5861 24.4719C32.1652 24.1061 33.3548 23.0626 33.6721 20.9073C34.1106 17.9629 31.8789 16.3801 28.8273 15.3242ZM20.7115 29.6622L22.0387 24.3177C24.1913 24.8578 28.9495 25.4655 28.15 28.6858C27.3938 31.7378 22.7497 30.1704 20.7115 29.6622ZM22.6459 21.8712L23.8491 17.0239C25.7421 17.498 29.5859 18.0898 28.8977 20.8637C28.2289 23.5548 24.4773 22.3295 22.6459 21.8712Z" fill="white"/>
</svg>
