<svg width="48" height="48" viewBox="0 0 48 48" fill="none" xmlns="http://www.w3.org/2000/svg">
<circle cx="24" cy="24" r="24" fill="white"/>
<path d="M2 24C2 36.1503 11.8497 46 24 46C36.1503 46 46 36.1503 46 24C46 11.8497 36.1503 2 24 2C11.8497 2 2 11.8497 2 24Z" fill="#28CD96"/>
<path fill-rule="evenodd" clip-rule="evenodd" d="M18.9436 24.0031L27.864 32.9231L33.4947 27.2936C34.5015 26.3872 36.0419 26.4275 36.9999 27.3854C37.9579 28.3432 37.9982 29.8832 37.0916 30.8898L29.6611 38.3202C28.6631 39.3016 27.0623 39.3016 26.0642 38.3202L15.3439 27.5993V33.9715C15.3439 35.3779 14.2036 36.518 12.7969 36.518C11.3903 36.518 10.25 35.3779 10.25 33.9715V14.0263C10.25 12.6199 11.3903 11.4799 12.7969 11.4799C14.2036 11.4799 15.3439 12.6199 15.3439 14.0263V20.3985L26.0628 9.68035C27.0606 8.69822 28.662 8.69822 29.6598 9.68035L37.0958 17.1093C38.0024 18.116 37.962 19.656 37.004 20.6138C36.046 21.5716 34.5057 21.612 33.4988 20.7056L27.8682 15.0761L18.9436 24.0031ZM27.8682 21.4539C26.8368 21.4533 25.9067 22.074 25.5116 23.0266C25.1165 23.9791 25.3343 25.0758 26.0634 25.8051C26.7925 26.5344 27.8893 26.7528 28.8422 26.3583C29.7951 25.9638 30.4165 25.0342 30.4165 24.0031C30.4169 23.327 30.1486 22.6784 29.6707 22.2001C29.1928 21.7218 28.5444 21.4529 27.8682 21.4525V21.4539Z" fill="white"/>
</svg>
