<svg width="48" height="48" viewBox="0 0 48 48" fill="none" xmlns="http://www.w3.org/2000/svg">
<circle cx="24" cy="24" r="24" fill="white"/>
<path d="M24 46.0688C36.1503 46.0688 46 36.219 46 24.0688C46 11.9185 36.1503 2.06876 24 2.06876C11.8497 2.06876 2 11.9185 2 24.0688C2 36.219 11.8497 46.0688 24 46.0688Z" fill="#F0B90B"/>
<path d="M16.1629 13.9422L23.9124 9.43127L31.6619 13.9422L28.8128 15.6086L23.9124 12.7642L19.012 15.6086L16.1629 13.9422ZM31.6619 19.6311L28.8128 17.9647L23.9124 20.8091L19.012 17.9647L16.1629 19.6311V22.964L21.0633 25.8085V31.4974L23.9124 33.1638L26.7615 31.4974V25.8085L31.6619 22.964V19.6311ZM31.6619 28.6529V25.32L28.8128 26.9865V30.3194L31.6619 28.6529ZM33.6848 29.8309L28.7844 32.6754V36.0083L36.5339 31.4974V22.4756L33.6848 24.142V29.8309ZM30.8357 16.7867L33.6848 18.4531V21.786L36.5339 20.1196V16.7867L33.6848 15.1202L30.8357 16.7867ZM21.0633 33.8821V37.215L23.9124 38.8815L26.7615 37.215V33.8821L23.9124 35.5486L21.0633 33.8821ZM16.1629 28.6529L19.012 30.3194V26.9865L16.1629 25.32V28.6529ZM21.0633 16.7867L23.9124 18.4531L26.7615 16.7867L23.9124 15.1202L21.0633 16.7867ZM14.14 18.4531L16.9891 16.7867L14.14 15.1202L11.2909 16.7867V20.1196L14.14 21.786V18.4531ZM14.14 24.142L11.2909 22.4756V31.4974L19.0404 36.0083V32.6754L14.14 29.8309V24.142Z" fill="white"/>
</svg>
