<svg width="48" height="48" viewBox="0 0 48 48" fill="none" xmlns="http://www.w3.org/2000/svg">
<circle cx="24" cy="24" r="24" fill="white"/>
<path d="M24 45C35.598 45 45 35.598 45 24C45 12.402 35.598 3 24 3C12.402 3 3 12.402 3 24C3 35.598 12.402 45 24 45Z" fill="#A7B8DB"/>
<path fill-rule="evenodd" clip-rule="evenodd" d="M18.0493 32.3569H13.9738C13.1174 32.3569 12.6943 32.3569 12.4364 32.1919C12.1578 32.0112 11.9876 31.712 11.9669 31.3818C11.9515 31.0776 12.163 30.706 12.586 29.9631L22.649 12.2257C23.0772 11.4725 23.2939 11.0959 23.5673 10.9566C23.8614 10.807 24.2122 10.807 24.5062 10.9566C24.7797 11.0959 24.9963 11.4725 25.4245 12.2257L27.4933 15.8369L27.5038 15.8554C27.9663 16.6634 28.2008 17.0732 28.3032 17.5032C28.4167 17.9727 28.4167 18.468 28.3032 18.9374C28.2 19.3708 27.9679 19.7835 27.4984 20.6038L22.2126 29.9476L22.1989 29.9716C21.7334 30.7863 21.4974 31.1992 21.1705 31.5107C20.8145 31.8513 20.3863 32.0988 19.9168 32.2383C19.4886 32.3569 19.0089 32.3569 18.0493 32.3569ZM28.3414 32.3569H34.1811C35.0427 32.3569 35.4761 32.3569 35.7342 32.1869C36.0127 32.0062 36.188 31.7017 36.2037 31.3717C36.2185 31.0773 36.0116 30.7202 35.6061 30.0205C35.5921 29.9967 35.5782 29.9724 35.5639 29.9478L32.6387 24.9436L32.6054 24.8873C32.1944 24.1922 31.9869 23.8412 31.7204 23.7055C31.4265 23.5559 31.0806 23.5559 30.7867 23.7055C30.5184 23.8448 30.3018 24.2111 29.8736 24.9488L26.9588 29.9529L26.9488 29.9702C26.5221 30.7067 26.3089 31.0748 26.3242 31.3768C26.3449 31.707 26.5151 32.0112 26.7937 32.1919C27.0465 32.3569 27.4798 32.3569 28.3414 32.3569Z" fill="white"/>
</svg>
