<svg width="48" height="48" viewBox="0 0 48 48" fill="none" xmlns="http://www.w3.org/2000/svg">
<circle cx="24" cy="24" r="24" fill="white"/>
<path d="M24 45.0656C35.598 45.0656 45 35.6636 45 24.0656C45 12.4676 35.598 3.06561 24 3.06561C12.402 3.06561 3 12.4676 3 24.0656C3 35.6636 12.402 45.0656 24 45.0656Z" fill="#A7B8DB"/>
<path d="M16.5191 14.3994L23.9163 10.0935L31.3136 14.3994L28.5941 15.9901L23.9163 13.2749L19.2387 15.9901L16.5191 14.3994ZM31.3136 19.8297L28.5941 18.239L23.9163 20.9542L19.2387 18.239L16.5191 19.8297V23.0111L21.1968 25.7263V31.1566L23.9163 32.7473L26.636 31.1566V25.7263L31.3136 23.0111V19.8297ZM31.3136 28.4414V25.2601L28.5941 26.8508V30.0321L31.3136 28.4414ZM33.2446 29.5659L28.5669 32.2811V35.4625L35.9642 31.1566V22.5449L33.2446 24.1356V29.5659ZM30.525 17.1145L33.2446 18.7053V21.8867L35.9642 20.296V17.1145L33.2446 15.5238L30.525 17.1145ZM21.1968 33.433V36.6144L23.9163 38.2051L26.636 36.6144V33.433L23.9163 35.0237L21.1968 33.433ZM16.5191 28.4414L19.2387 30.0321V26.8508L16.5191 25.2601V28.4414ZM21.1968 17.1145L23.9163 18.7053L26.636 17.1145L23.9163 15.5238L21.1968 17.1145ZM14.5881 18.7053L17.3077 17.1145L14.5881 15.5238L11.8686 17.1145V20.296L14.5881 21.8867V18.7053ZM14.5881 24.1356L11.8686 22.5449V31.1566L19.2659 35.4625V32.2811L14.5881 29.5659V24.1356Z" fill="white"/>
</svg>
