<svg xmlns="http://www.w3.org/2000/svg" fill="none" viewBox="0 0 48 48"><circle fill="#1C2029" r="24" cy="24" cx="24"/><path fill="#748199" d="M24 45c11.598 0 21-9.402 21-21S35.598 3 24 3 3 12.402 3 24s9.402 21 21 21Z"/><path fill="#fff" d="M17.88 29.581c-1.251 0-2.276-.294-3.074-.882-.788-.6-1.182-1.45-1.182-2.554 0-.23.026-.514.078-.85a52.17 52.17 0 0 1 .584-2.727c.714-2.89 2.558-4.335 5.532-4.335.809 0 1.534.137 2.175.41a3.306 3.306 0 0 1 1.513 1.198c.368.525.552 1.156.552 1.891 0 .22-.026.5-.08.836a35.687 35.687 0 0 1-.567 2.726c-.367 1.44-1.003 2.517-1.907 3.231-.903.704-2.112 1.056-3.625 1.056Zm.22-2.27c.588 0 1.087-.173 1.497-.52.42-.346.72-.877.899-1.591.241-.988.425-1.85.551-2.585.042-.22.063-.447.063-.678 0-.956-.499-1.434-1.497-1.434-.588 0-1.093.173-1.513.52-.41.347-.704.877-.883 1.592-.189.704-.378 1.566-.567 2.585-.042.21-.063.43-.063.662 0 .966.504 1.45 1.513 1.45ZM24.781 29.424a.334.334 0 0 1-.267-.11.377.377 0 0 1-.048-.284l2.175-10.245a.451.451 0 0 1 .174-.284.48.48 0 0 1 .3-.11h4.192c1.166 0 2.101.241 2.805.725.715.483 1.072 1.182 1.072 2.096 0 .263-.031.536-.094.82-.263 1.208-.794 2.101-1.592 2.68-.788.577-1.87.866-3.247.866h-2.128l-.725 3.452a.452.452 0 0 1-.174.284.48.48 0 0 1-.299.11h-2.144Zm5.58-6.021c.441 0 .825-.121 1.15-.363.337-.241.558-.588.663-1.04.031-.179.047-.336.047-.473 0-.305-.09-.536-.268-.693-.179-.168-.483-.252-.914-.252h-1.892l-.599 2.82h1.813Z"/></svg>