<svg xmlns="http://www.w3.org/2000/svg" fill="none" viewBox="0 0 48 48"><path fill="#1C2029" d="M22 1.155a4 4 0 0 1 4 0l16.785 9.69a4 4 0 0 1 2 3.464v19.382a4 4 0 0 1-2 3.464L26 46.845a4 4 0 0 1-4 0l-16.785-9.69a4 4 0 0 1-2-3.464V14.309a4 4 0 0 1 2-3.464L22 1.155Z"/><path fill="#96BEDC" d="M21.14 3.651c1.042-.601 1.563-.902 2.117-1.02.49-.104.996-.104 1.486 0 .554.118 1.075.419 2.117 1.02l13.333 7.698c1.041.601 1.562.902 1.941 1.323.335.372.589.81.744 1.287.175.539.175 1.14.175 2.343v15.396c0 1.203 0 1.804-.175 2.343a3.575 3.575 0 0 1-.744 1.287c-.379.42-.9.722-1.941 1.323L26.86 44.35c-1.042.601-1.563.902-2.117 1.02-.49.104-.996.104-1.486 0-.554-.118-1.075-.419-2.117-1.02L4.947 35V16.302c0-1.203 0-1.804.175-2.343.155-.476.408-.915.744-1.287.379-.42.9-.722 1.941-1.323L21.14 3.65Z"/><path fill="#2D374B" d="M23.657 5.316c-.256.055-.496.193-.977.471L8.887 13.75c-.48.278-.721.417-.896.611a1.65 1.65 0 0 0-.343.594c-.08.249-.08.526-.08 1.082v20.476l4.881 2.818h1.032v-2.429l9.199 5.31c.48.278.721.417.977.472.226.048.46.048.686 0 .256-.055.496-.194.977-.471l13.793-7.963c.48-.278.721-.417.896-.611a1.65 1.65 0 0 0 .343-.594c.08-.249.08-.526.08-1.082V16.037c0-.556 0-.833-.08-1.082a1.65 1.65 0 0 0-.343-.594c-.175-.194-.415-.333-.896-.61L25.32 5.786c-.48-.278-.721-.416-.977-.47a1.65 1.65 0 0 0-.686 0Z"/><path fill="#28A0F0" d="m35.725 36.206-4.568 2.637-6.263-10.203 3.094-5.04 7.737 12.605ZM40.433 30.435v1.528c0 .556 0 .833-.08 1.082a1.65 1.65 0 0 1-.344.594c-.175.194-.415.333-.896.61l-1.865 1.077-8.23-13.406 3.094-5.04 8.32 13.555Z"/><path fill="#fff" d="M9.178 37.443 4.948 35v-.746l9.377-15.277c.846-1.378 1.27-2.067 1.846-2.567a4.95 4.95 0 0 1 1.75-.98c.729-.23 1.537-.23 3.154-.23h1.756L9.178 37.443ZM15.27 40.96l-4.57-2.638L24.895 15.2h6.187L15.27 40.96Z"/></svg>