<svg xmlns="http://www.w3.org/2000/svg" fill="none" viewBox="0 0 48 48"><path fill="#1C2029" d="M22 1.155a4 4 0 0 1 4 0l16.785 9.69a4 4 0 0 1 2 3.464v19.382a4 4 0 0 1-2 3.464L26 46.845a4 4 0 0 1-4 0l-16.785-9.69a4 4 0 0 1-2-3.464V14.309a4 4 0 0 1 2-3.464L22 1.155Z"/><path fill="#748199" d="M21.27 4.576c.995-.574 1.492-.861 2.02-.974.468-.099.952-.099 1.42 0 .528.113 1.025.4 2.02.974l12.726 7.348c.995.574 1.492.861 1.854 1.263.32.355.562.774.71 1.229.167.514.167 1.088.167 2.236v14.696c0 1.148 0 1.722-.167 2.236-.148.455-.39.874-.71 1.23-.362.4-.859.688-1.853 1.262L26.73 43.424c-.995.574-1.492.861-2.02.974-.468.099-.952.099-1.42 0-.528-.113-1.025-.4-2.02-.974L5.813 34.5V16.652c0-1.148 0-1.722.168-2.236.147-.455.389-.874.709-1.23.362-.4.859-.688 1.853-1.262L21.27 4.576Z"/><path fill="#748199" d="M23.672 6.166c-.244.051-.473.184-.932.449L9.574 14.216c-.459.265-.688.398-.855.583-.148.164-.26.357-.328.567-.077.238-.077.503-.077 1.033V31.6c0 .143 0 .267.002.376v3.968l4.658 2.69h.985v-2.32l8.781 5.07c.459.265.689.398.933.45.215.045.439.045.654 0 .244-.052.474-.185.933-.45l13.166-7.601c.459-.265.688-.398.855-.583.148-.164.26-.357.328-.567.077-.238.077-.503.077-1.033V16.4c0-.53 0-.795-.077-1.033a1.575 1.575 0 0 0-.328-.567c-.167-.185-.396-.318-.855-.583L25.26 6.615c-.46-.265-.689-.398-.933-.45a1.575 1.575 0 0 0-.655 0Z"/><path fill="#fff" d="m35.192 35.65-4.36 2.518-5.979-9.739 2.953-4.81 7.386 12.032ZM39.686 30.142v1.46c0 .53 0 .794-.077 1.032-.068.21-.18.403-.328.567-.167.185-.396.318-.855.583l-1.78 1.027-7.855-12.796 2.953-4.811 7.942 12.938ZM9.852 36.831 5.813 34.5v-.712l8.952-14.583c.808-1.315 1.211-1.973 1.762-2.45a4.725 4.725 0 0 1 1.671-.935c.695-.22 1.467-.22 3.01-.22h1.676L9.852 36.831ZM15.666 40.188l-4.36-2.517L24.852 15.6h5.906L15.666 40.188Z"/></svg>