<svg width="48" height="48" viewBox="0 0 48 48" fill="none" xmlns="http://www.w3.org/2000/svg">
<circle cx="24" cy="24" r="24" fill="#1C2029"/>
<path d="M3 24C3 35.598 12.402 45 24 45C35.598 45 45 35.598 45 24C45 12.402 35.598 3 24 3C12.402 3 3 12.402 3 24Z" fill="#748199"/>
<path fill-rule="evenodd" clip-rule="evenodd" d="M19.1734 24.0029L27.6884 32.5175L33.0631 27.1439C34.0242 26.2787 35.4945 26.3172 36.409 27.2315C37.3234 28.1457 37.3619 29.6158 36.4966 30.5767L29.4038 37.6693C28.4511 38.6061 26.9231 38.6061 25.9704 37.6693L15.7373 27.4357V33.5183C15.7373 34.8607 14.6488 35.9489 13.3062 35.9489C11.9635 35.9489 10.875 34.8607 10.875 33.5183V14.4796C10.875 13.1372 11.9635 12.0489 13.3062 12.0489C14.6488 12.0489 15.7373 13.1372 15.7373 14.4796V20.5622L25.969 10.3312C26.9215 9.39374 28.4501 9.39374 29.4025 10.3312L36.5005 17.4225C37.3659 18.3834 37.3274 19.8534 36.4129 20.7677C35.4985 21.682 34.0281 21.7205 33.0671 20.8553L27.6924 15.4817L19.1734 24.0029ZM27.6924 21.5696C26.7079 21.5691 25.82 22.1616 25.4429 23.0708C25.0658 23.98 25.2737 25.0268 25.9696 25.723C26.6656 26.4192 27.7125 26.6277 28.6221 26.2511C29.5317 25.8746 30.1248 24.9872 30.1248 24.0029C30.1252 23.3575 29.8691 22.7385 29.4129 22.2819C28.9568 21.8253 28.3379 21.5686 27.6924 21.5683V21.5696Z" fill="white"/>
</svg>
