<svg width="48" height="48" viewBox="0 0 48 48" fill="none" xmlns="http://www.w3.org/2000/svg">
<circle cx="24" cy="24" r="24" fill="#1C2029"/>
<path d="M24 46C36.1503 46 46 36.1503 46 24C46 11.8497 36.1503 2 24 2C11.8497 2 2 11.8497 2 24C2 36.1503 11.8497 46 24 46Z" fill="#E84142"/>
<path fill-rule="evenodd" clip-rule="evenodd" d="M17.7659 32.7548H13.4963C12.5991 32.7548 12.156 32.7548 11.8858 32.582C11.5939 32.3927 11.4155 32.0793 11.3939 31.7333C11.3777 31.4146 11.5993 31.0253 12.0425 30.2471L22.5847 11.665C23.0333 10.8759 23.2602 10.4814 23.5467 10.3355C23.8547 10.1787 24.2223 10.1787 24.5303 10.3355C24.8168 10.4814 25.0438 10.8759 25.4923 11.665L27.6596 15.4482L27.6706 15.4675C28.1551 16.314 28.4008 16.7433 28.5081 17.1939C28.627 17.6857 28.627 18.2045 28.5081 18.6963C28.4 19.1503 28.1568 19.5827 27.665 20.442L22.1274 30.2309L22.1131 30.2559C21.6254 31.1094 21.3782 31.542 21.0357 31.8684C20.6628 32.2252 20.2142 32.4844 19.7224 32.6306C19.2738 32.7548 18.7712 32.7548 17.7659 32.7548ZM28.5481 32.7548H34.6659C35.5685 32.7548 36.0226 32.7548 36.293 32.5767C36.5847 32.3875 36.7684 32.0684 36.7848 31.7228C36.8003 31.4143 36.5836 31.0402 36.1588 30.3072C36.1441 30.2822 36.1295 30.2568 36.1146 30.231L33.0501 24.9886L33.0152 24.9295C32.5846 24.2013 32.3672 23.8336 32.088 23.6915C31.7801 23.5347 31.4178 23.5347 31.1099 23.6915C30.8288 23.8374 30.6018 24.2211 30.1532 24.9939L27.0997 30.2364L27.0892 30.2544C26.6422 31.0261 26.4188 31.4117 26.4349 31.728C26.4565 32.074 26.6349 32.3927 26.9267 32.582C27.1915 32.7548 27.6455 32.7548 28.5481 32.7548Z" fill="white"/>
</svg>
