<svg width="48" height="48" viewBox="0 0 48 48" fill="none" xmlns="http://www.w3.org/2000/svg">
<circle cx="24" cy="24" r="24" fill="#1C2029"/>
<path d="M44.3713 29.0802C41.5662 40.3301 30.1706 47.1766 18.918 44.3713C7.67001 41.5665 0.822633 30.1714 3.62906 18.9222C6.43284 7.67087 17.8285 0.82363 29.0779 3.62842C40.3299 6.43321 47.1767 17.8295 44.3713 29.0802Z" fill="#748199"/>
<path fill-rule="evenodd" clip-rule="evenodd" d="M28.6079 15.7186L29.5528 11.9114L27.2458 11.3338L26.3259 15.0407C25.7194 14.8889 25.0965 14.7456 24.4775 14.6037L25.4041 10.8724L23.0984 10.2949L22.1528 14.1007C20.5949 13.7444 19.0494 13.3376 17.5008 12.943L16.8871 15.4182C16.8871 15.4182 18.5987 15.8123 18.5625 15.8367C19.4969 16.071 19.6657 16.6921 19.6375 17.1845L17.0487 27.6141C16.9344 27.8992 16.6446 28.3269 15.9914 28.1645C16.0145 28.1982 14.3145 27.7441 14.3145 27.7441L13.1692 30.3969C14.7194 30.785 16.2685 31.1767 17.816 31.5751L16.8614 35.4258L19.1657 36.0033L20.1113 32.1935C20.7407 32.3651 21.3519 32.5235 21.9498 32.6727L21.0076 36.4647L23.3146 37.0423L24.2692 33.1988C28.2031 33.9466 31.1614 33.6449 32.4065 30.0708C33.4098 27.1929 32.3566 25.5329 30.2867 24.4504C31.7941 24.1012 32.9295 23.1052 33.2324 21.0478C33.651 18.2373 31.5208 16.7265 28.6079 15.7186ZM20.861 29.4048L22.1278 24.3032C24.1826 24.8188 28.7246 25.3989 27.9614 28.4728C27.2396 31.3861 22.8065 29.8899 20.861 29.4048ZM22.7074 21.968L23.856 17.341C25.6629 17.7935 29.332 18.3584 28.6751 21.0063C28.0367 23.575 24.4556 22.4054 22.7074 21.968Z" fill="white"/>
</svg>
