<svg width="48" height="48" viewBox="0 0 48 48" fill="none" xmlns="http://www.w3.org/2000/svg">
<circle cx="24" cy="24" r="24" fill="#1C2029"/>
<path d="M24 46C36.1503 46 46 36.1503 46 24C46 11.8497 36.1503 2 24 2C11.8497 2 2 11.8497 2 24C2 36.1503 11.8497 46 24 46Z" fill="#7B3FE4"/>
<path d="M38.6665 24.5135V31.1506C38.6641 31.5645 38.5548 31.9707 38.3491 32.3295C38.1434 32.6882 37.8485 32.9873 37.4932 33.1974L31.764 36.5091C31.4092 36.7213 31.0038 36.8334 30.5907 36.8334C30.1776 36.8334 29.7722 36.7213 29.4173 36.5091L23.6882 33.1974C23.3328 32.9873 23.0379 32.6882 22.8323 32.3295C22.6266 31.9707 22.5172 31.5645 22.5148 31.1506V29.2878L25.4482 27.5791V30.8171L30.5815 33.8068L35.7148 30.8171V24.8516L30.5815 21.8619L18.5548 28.8531C18.1967 29.0557 17.7925 29.1621 17.3815 29.1621C16.9704 29.1621 16.5663 29.0557 16.2082 28.8531L10.479 25.5277C10.1291 25.3144 9.83988 25.0142 9.63918 24.6561C9.43849 24.298 9.33311 23.8941 9.33316 23.4832V16.8461C9.33553 16.4322 9.44492 16.026 9.65057 15.6673C9.85627 15.3085 10.1512 15.0094 10.5065 14.7993L16.2357 11.4877C16.5912 11.2775 16.9964 11.1667 17.409 11.1667C17.8216 11.1667 18.2268 11.2775 18.5823 11.4877L24.3115 14.7993C24.6668 15.0094 24.9617 15.3085 25.1674 15.6673C25.3731 16.026 25.4824 16.4322 25.4848 16.8461V18.7089L22.5332 20.4061V17.1865L17.3998 14.1968L12.2665 17.1865V23.1451L17.3998 26.1348L29.4265 19.1436C29.7846 18.941 30.1888 18.8347 30.5998 18.8347C31.0109 18.8347 31.415 18.941 31.7732 19.1436L37.5023 22.469C37.8556 22.6801 38.1485 22.9793 38.3525 23.3375C38.5565 23.6958 38.6647 24.1009 38.6665 24.5135Z" fill="white"/>
</svg>
