<svg xmlns="http://www.w3.org/2000/svg" fill="none" viewBox="0 0 48 48"><circle fill="#1C2029" r="24" cy="24" cx="24"/><g clip-path="url(#a)"><path fill="#1969FF" d="M24 46c12.15 0 22-9.85 22-22S36.15 2 24 2 2 11.85 2 24s9.85 22 22 22Z"/><path fill="#fff" d="M22.666 8.996c.741-.39 1.869-.39 2.61 0l7.563 3.987c.447.236.692.586.736.948h.007v20.043c-.01.394-.257.787-.743 1.043l-7.563 3.987c-.741.39-1.869.39-2.61 0l-7.563-3.987c-.484-.255-.716-.65-.727-1.044a1.348 1.348 0 0 1 0-.1V14.066a1.05 1.05 0 0 1 0-.083v-.052h.003c.034-.365.268-.707.724-.947l7.563-3.988Zm9.713 16.078-7.105 3.758c-.74.392-1.867.392-2.607 0l-7.089-3.75v8.83l7.09 3.73c.418.223.854.442 1.278.451h.025c.423.002.834-.213 1.25-.417l7.158-3.797v-8.805ZM13.19 33.54c0 .768.089 1.273.264 1.63.146.294.364.52.763.794l.023.015c.088.06.184.122.302.195l.138.086.425.259-.61 1.017-.475-.29-.08-.05c-.138-.085-.252-.159-.358-.231-1.138-.774-1.562-1.617-1.57-3.371v-.054h1.178Zm10.208-13.793c-.055.019-.106.041-.153.066l-7.552 4a.575.575 0 0 0-.022.012l-.007.004.012.007.017.01 7.552 4c.047.024.098.046.153.065v-8.164Zm1.204 0v8.164c.055-.019.106-.04.153-.066l7.552-4a.75.75 0 0 0 .023-.012l.006-.004-.012-.007-.017-.009-7.552-4a1.075 1.075 0 0 0-.153-.066Zm7.777-4.383-6.79 3.567 6.79 3.566v-7.133Zm-16.8 0v7.133l6.788-3.566-6.789-3.567Zm9.17-5.3c-.393-.209-1.105-.209-1.498 0l-7.558 3.995a.754.754 0 0 0-.022.012l-.007.004.012.007.017.01 7.558 3.995c.393.208 1.105.208 1.498 0l7.558-3.996a.895.895 0 0 0 .023-.012l.006-.004-.012-.007-.017-.009-7.558-3.996Zm8.755.402.476.29.08.05c.138.085.252.159.358.231 1.138.774 1.562 1.617 1.57 3.372v.053H34.81c0-.768-.089-1.273-.264-1.63-.146-.294-.364-.52-.764-.793l-.022-.016a9.001 9.001 0 0 0-.302-.195l-.138-.086-.425-.259.61-1.017Z"/></g><defs><clipPath id="a"><path transform="translate(2 2)" fill="#fff" d="M0 0h44v44H0z"/></clipPath></defs></svg>