<svg xmlns="http://www.w3.org/2000/svg" fill="none" viewBox="0 0 48 48"><circle fill="#1C2029" r="24" cy="24" cx="24"/><g clip-path="url(#a)"><path fill="#748199" d="M24 45c11.598 0 21-9.402 21-21S35.598 3 24 3 3 12.402 3 24s9.402 21 21 21Z"/><path fill="#fff" d="M22.727 9.678c.707-.373 1.784-.373 2.491 0l7.22 3.806c.426.225.66.56.702.905h.007V33.52c-.01.377-.246.752-.71.996l-7.219 3.806c-.707.373-1.784.373-2.491 0l-7.22-3.806c-.461-.243-.683-.62-.694-.996a1.332 1.332 0 0 1 0-.096V14.518a.956.956 0 0 1 0-.08v-.049h.004c.032-.35.255-.675.69-.905l7.22-3.806Zm9.271 15.347-6.782 3.588c-.707.373-1.782.373-2.488 0l-6.767-3.58v8.428l6.767 3.56c.4.214.816.423 1.22.432h.024c.404.001.796-.204 1.194-.399l6.832-3.624v-8.405Zm-18.317 8.08c0 .734.085 1.216.253 1.556.139.28.347.496.728.758l.022.015c.084.056.176.116.288.186l.132.082.406.247-.582.97-.455-.276-.076-.047a9.948 9.948 0 0 1-.342-.221c-1.085-.739-1.49-1.544-1.498-3.218v-.051h1.124Zm9.745-13.165a1.032 1.032 0 0 0-.147.062l-7.208 3.819a.81.81 0 0 0-.022.011l-.006.004.011.006.017.01 7.208 3.818c.045.023.094.044.147.062V19.94Zm1.148 0v7.792c.053-.018.102-.039.147-.062l7.208-3.819a.81.81 0 0 0 .022-.011l.006-.004-.011-.007-.017-.009-7.208-3.818a1.027 1.027 0 0 0-.147-.063Zm7.424-4.184-6.48 3.404 6.48 3.404v-6.808Zm-16.037 0v6.808l6.48-3.404-6.48-3.404Zm8.754-5.06c-.376-.199-1.054-.199-1.43 0l-7.214 3.814a.6.6 0 0 0-.022.012l-.006.003.011.007.017.009 7.214 3.814c.376.198 1.054.198 1.43 0l7.214-3.814a.825.825 0 0 0 .022-.012l.006-.004-.011-.006-.017-.009-7.214-3.814Zm8.357.384.455.277.076.047c.131.082.24.152.342.221 1.085.739 1.49 1.544 1.498 3.219v.05H34.32c0-.733-.085-1.215-.253-1.555-.139-.281-.347-.496-.728-.758l-.022-.015a8.662 8.662 0 0 0-.288-.186l-.132-.082-.406-.247.582-.97Z"/></g><defs><clipPath id="a"><path transform="translate(3 3)" fill="#fff" d="M0 0h42v42H0z"/></clipPath></defs></svg>